<svg width="292" height="292" viewBox="0 0 292 292" fill="none" xmlns="http://www.w3.org/2000/svg">
<g clip-path="url(#clip0_280_2817)">
<path d="M72.83 218.485H91.037V103.832C84.209 105.762 78.055 109.267 72.83 113.873C72.83 113.874 72.83 218.485 72.83 218.485ZM36.415 140.921V218.357L37.589 218.484H54.622V140.802H37.589C37.589 140.803 36.415 140.921 36.415 140.921ZM0 179.63C0 193.732 7.338 205.958 18.207 212.777V146.52C7.338 153.329 0 165.556 0 179.63ZM109.245 218.485H127.452V108.885C122.008 105.489 115.845 103.25 109.245 102.385V218.485ZM253.73 140.803H243.488C244.007 137.635 244.335 134.421 244.335 131.098C244.335 98.916 219.09 72.834 187.947 72.834C171.051 72.834 155.993 80.609 145.66 92.789V218.484H253.73C274.477 218.484 291.319 201.096 291.319 179.629C291.319 158.182 274.477 140.803 253.73 140.803Z" fill="white"/>
</g>
<defs>
<clipPath id="clip0_280_2817">
<rect width="291.319" height="291.319" fill="white"/>
</clipPath>
</defs>
</svg>
